<?xml version="1.0" encoding="UTF-8"?>
<!DOCTYPE svg PUBLIC "-//W3C//DTD SVG 1.1//EN" "http://www.w3.org/Graphics/SVG/1.1/DTD/svg11.dtd">
<!-- Creator: CorelDRAW -->
<svg xmlns="http://www.w3.org/2000/svg" xml:space="preserve" width="102.964mm" height="37.5635mm" version="1.1" style="shape-rendering:geometricPrecision; text-rendering:geometricPrecision; image-rendering:optimizeQuality; fill-rule:evenodd; clip-rule:evenodd"
viewBox="0 0 10295.3 3755.96"
 xmlns:xlink="http://www.w3.org/1999/xlink"
 xmlns:xodm="http://www.corel.com/coreldraw/odm/2003">
 <defs>
  <style type="text/css">
   <![CDATA[
    .fil0 {fill:#FEFEFE}
    .fil1 {fill:#F7D52A}
   ]]>
  </style>
 </defs>
 <g id="Camada_x0020_1">
  <metadata id="CorelCorpID_0Corel-Layer"/>
  <g id="_2205084405456">
   <path class="fil0" d="M1517.38 650.1l1229.14 -304.86 298.08 1226.04 -401.19 473.13 -163.81 -630.54 -925.69 1535.9 -77.91 0 -663.3 0 -18.97 0 -793.73 -2828.71 319.18 -85.52c175.53,-47.05 355.55,58.67 404.66,233.64l507.72 1809.44 -129.91 367.11 163.63 -246.89 669.97 -1111.6 -643.57 125.79 225.71 -562.94z"/>
   <polygon class="fil1" points="3089.43,1542.8 2784.38,279.96 1527.9,591.66 1632.76,322.05 2958.37,0 3276.66,1329.35 "/>
   <path class="fil0" d="M4205.37 2085.94l-0.74 878.75 -455.07 0 0 -2944.28 1122.23 0c217.94,0 440.69,31.04 641.09,120.27 175.33,78.07 322.21,194.16 426.54,355.95 108.24,167.85 150.02,360.64 150.02,558.52 0,195.86 -43.07,384.73 -150.02,550.57 -104.5,162.05 -251.33,278.55 -426.07,357.72 -200.29,90.76 -423.14,122.49 -641.56,122.49l-666.42 0zm4663.72 793.19l-969.29 -2162.88 470.76 0 735.35 1656.28 734.61 -1656.28 454.77 0 -1096.22 2450.85c-52.02,120.64 -118.47,243.67 -206.21,342.98 -71.91,81.42 -157.49,149.48 -258.84,190.35 -97,39.11 -200.15,55.53 -304.44,55.53 -105.14,0 -208.47,-16.96 -307.47,-52.42 -97.71,-35.01 -184.99,-88.59 -258.38,-162l-45.18 -45.18 217.14 -348.74 71.54 67.97c44.4,42.18 94.38,77.14 150.38,102.17 55.55,24.83 115.33,34.76 175.93,34.76 70.76,0 135.26,-17.83 191.7,-60.99 72.55,-55.48 130.84,-161.57 168.5,-241.81l75.32 -170.59zm-1272.97 -1256.29l0 -46.8c0,-129.12 -28.22,-259.2 -124.38,-351.5 -101.1,-97.06 -253.04,-120.74 -387.64,-120.74 -122.65,0 -242.74,20.08 -357.8,62.6 -103.52,38.26 -201.72,91.09 -285.07,164.02l-72.23 63.19 -212.21 -351.47 52.12 -44.31c120.04,-102.04 259.4,-174.56 408.59,-223.85 160,-52.85 326.06,-77.62 494.44,-77.62 244.88,0 494.36,52.47 680.4,221.75 189.38,172.3 246.99,422.55 246.99,669.86l0 1376.71 -431.29 0 0 -190.31c-31.6,27.27 -65.51,52.13 -101.52,74.66 -160.94,100.81 -350.13,135.54 -537.74,135.54 -150.46,0 -302.37,-22.67 -440.47,-84.58 -120.6,-54.05 -224.68,-132.84 -298.45,-243.5 -72.28,-108.42 -104.97,-230.68 -104.97,-360.73 0,-119.58 28.16,-233.12 88.46,-336.72 66.43,-114.1 172.01,-192.79 290.35,-247.3 153.87,-70.89 341.26,-88.9 508.83,-88.9l583.59 0zm-3405.52 41.76l659.35 0c197.42,0 425.82,-31.31 582.66,-162.23 137.95,-115.17 187.81,-272.75 187.81,-449.19 0,-178.02 -49.46,-338.38 -188.15,-455.43 -156.54,-132.13 -384.42,-163.93 -582.32,-163.93l-659.35 0 0 1230.79zm3405.52 576.05l0 -246.16 -575.63 0c-105.59,0 -282.24,10.35 -365.19,86.26 -61.53,56.32 -91.16,123.64 -91.16,207.06 0,93.16 33.97,165.58 107.87,222.6 93.97,72.49 225.25,90.6 340.52,90.6 130.45,0 257.29,-26.56 368.56,-96.89 101.26,-64 170.32,-153.96 215.03,-263.46z"/>
  </g>
 </g>
</svg>
